<svg width="56" height="81" viewBox="0 0 56 81" fill="none" xmlns="http://www.w3.org/2000/svg">
<path d="M56 27.9701C56 12.5455 43.441 0 28 0C12.559 0 0 12.5455 0 27.9701C0 42.2626 10.7878 54.0728 24.6539 55.7307V61.7739L15.6552 61.7962C13.8082 61.8007 12.3136 63.3026 12.318 65.1476C12.3225 66.9927 13.8215 68.4812 15.6641 68.4812H15.673L24.6539 68.4589V77.6575C24.6539 79.5026 26.153 81 28 81C29.847 81 31.3461 79.5026 31.3461 77.6575V68.4411L40.5679 68.4188C42.4149 68.4144 43.9095 66.9125 43.905 65.0674C43.9006 63.2223 42.4015 61.7338 40.559 61.7338H40.55L31.3461 61.7561V55.7307C45.2122 54.0728 56 42.2582 56 27.9701ZM6.69216 27.9701C6.69216 16.2357 16.2486 6.68501 28 6.68501C39.7514 6.68501 49.3078 16.2312 49.3078 27.9701C49.3078 39.7089 39.7514 49.2551 28 49.2551C16.2486 49.2551 6.69216 39.7089 6.69216 27.9701Z" fill="#C680FF"/>
</svg>
