<svg width="15" height="16" viewBox="0 0 15 16" fill="none" xmlns="http://www.w3.org/2000/svg">
<path d="M12.5 6.75C12.5 9.87063 9.03812 13.1206 7.87562 14.1244C7.76733 14.2058 7.6355 14.2498 7.5 14.2498C7.3645 14.2498 7.23267 14.2058 7.12438 14.1244C5.96188 13.1206 2.5 9.87063 2.5 6.75C2.5 5.42392 3.02678 4.15215 3.96447 3.21447C4.90215 2.27678 6.17392 1.75 7.5 1.75C8.82608 1.75 10.0979 2.27678 11.0355 3.21447C11.9732 4.15215 12.5 5.42392 12.5 6.75Z" stroke="#5653FF" stroke-linecap="round" stroke-linejoin="round"/>
<path d="M7.5 8.625C8.53553 8.625 9.375 7.78553 9.375 6.75C9.375 5.71447 8.53553 4.875 7.5 4.875C6.46447 4.875 5.625 5.71447 5.625 6.75C5.625 7.78553 6.46447 8.625 7.5 8.625Z" stroke="#5653FF" stroke-linecap="round" stroke-linejoin="round"/>
</svg>
