<svg width="80" height="81" viewBox="0 0 80 81" fill="none" xmlns="http://www.w3.org/2000/svg">
<path d="M75.9388 0H56.3639C54.1221 0 52.3027 1.82744 52.3027 4.0791C52.3027 6.33076 54.1221 8.1582 56.3639 8.1582H65.4934L54.2304 19.4709C48.5718 15.2395 41.5649 12.7322 33.984 12.7322C15.243 12.7322 0 28.0424 0 46.8661C0 65.6898 15.243 81 33.984 81C52.7251 81 67.968 65.6898 67.968 46.8661C67.968 38.5937 65.0223 31.0011 60.1273 25.0837L71.8776 13.2815V24.2244C71.8776 26.4761 73.697 28.3035 75.9388 28.3035C78.1806 28.3035 80 26.4761 80 24.2244V4.0791C80 1.82744 78.1806 0 75.9388 0ZM33.984 72.8418C19.7265 72.8418 8.12238 61.1919 8.12238 46.8661C8.12238 32.5403 19.7211 20.8904 33.984 20.8904C48.2469 20.8904 59.8457 32.5403 59.8457 46.8661C59.8457 61.1919 48.2469 72.8418 33.984 72.8418Z" fill="#D2EFFF"/>
</svg>
