<svg width="24" height="24" viewBox="0 0 24 24" fill="none" xmlns="http://www.w3.org/2000/svg">
<path d="M20.0862 3H15.6819C15.1775 3 14.7681 3.4061 14.7681 3.90647C14.7681 4.40684 15.1775 4.81293 15.6819 4.81293H17.736L15.2018 7.32687C13.9287 6.38656 12.3521 5.82938 10.6464 5.82938C6.42967 5.82938 3 9.23165 3 13.4147C3 17.5977 6.42967 21 10.6464 21C14.8631 21 18.2928 17.5977 18.2928 13.4147C18.2928 11.5764 17.63 9.88914 16.5286 8.57416L19.1725 5.95145V8.3832C19.1725 8.88357 19.5818 9.28967 20.0862 9.28967C20.5906 9.28967 21 8.88357 21 8.3832V3.90647C21 3.4061 20.5906 3 20.0862 3ZM10.6464 19.1871C7.43847 19.1871 4.82753 16.5982 4.82753 13.4147C4.82753 10.2312 7.43725 7.64232 10.6464 7.64232C13.8556 7.64232 16.4653 10.2312 16.4653 13.4147C16.4653 16.5982 13.8556 19.1871 10.6464 19.1871Z" fill="#64A4C5"/>
</svg>
