<?xml version="1.0" encoding="UTF-8"?>
<svg id="Layer_1" data-name="Layer 1" xmlns="http://www.w3.org/2000/svg" viewBox="0 0 25.37 20.85">
  <defs>
    <style>
      .cls-1 {
        fill: none;
        stroke: #ccc3e1;
        stroke-linejoin: round;
        stroke-width: 1.75px;
      }

      .cls-1, .cls-2, .cls-3 {
        stroke-linecap: round;
      }

      .cls-2 {
        fill: #fff;
        stroke: #241f2f;
        stroke-width: 3px;
      }

      .cls-3 {
        fill: #241f2f;
        stroke: #ff4646;
        stroke-width: 2px;
      }
    </style>
  </defs>
  <path class="cls-1" d="M6.88,9.98h.01"/>
  <path class="cls-1" d="M10.88,9.98h.01"/>
  <path class="cls-1" d="M14.88,9.98h.01"/>
  <path class="cls-1" d="M6.78,17.98c1.91.98,4.1,1.24,6.19.75,2.09-.5,3.93-1.72,5.19-3.46,1.26-1.73,1.87-3.86,1.7-6s-1.09-4.15-2.61-5.66-3.53-2.44-5.66-2.61c-2.14-.17-4.27.44-6,1.7s-2.96,3.1-3.46,5.19c-.5,2.09-.23,4.28.75,6.19l-2,5.9,5.9-2Z"/>
  <circle class="cls-2" cx="18.81" cy="6.56" r="5.06"/>
  <circle class="cls-3" cx="18.95" cy="6.56" r="3.41"/>
</svg>