<svg width="24" height="24" viewBox="0 0 24 24" fill="none" xmlns="http://www.w3.org/2000/svg">
<path d="M11.25 16.25H12.75L12 17L11.25 16.25Z" stroke="#BEC46A" stroke-width="2" stroke-linecap="round" stroke-linejoin="round"/>
<path d="M16 14V14.5" stroke="#BEC46A" stroke-width="2" stroke-linecap="round" stroke-linejoin="round"/>
<path d="M4.42001 11.2471C4.14014 12.3278 3.999 13.4397 4.00001 14.5561C4.00001 18.7281 7.58201 21.0001 12 21.0001C16.418 21.0001 20 18.7281 20 14.5561C19.995 13.4352 19.829 12.3208 19.507 11.2471" stroke="#BEC46A" stroke-width="2" stroke-linecap="round" stroke-linejoin="round"/>
<path d="M8 14V14.5" stroke="#BEC46A" stroke-width="2" stroke-linecap="round" stroke-linejoin="round"/>
<path d="M8.50096 8.49997C8.11696 9.54997 7.41796 10.528 6.15696 11C4.22596 11.722 2.58096 10.703 2.50096 9.99997C2.38796 9.00597 3.67796 3.46997 6.50096 2.99997C8.42396 2.67897 10.152 3.84497 10.152 5.23497C11.4167 4.91375 12.7435 4.92822 14.001 5.27697C14.001 3.88697 15.845 2.67897 17.768 2.99997C20.591 3.46997 21.881 9.00597 21.768 9.99997C21.688 10.703 20.043 11.722 18.112 11C16.851 10.528 16.257 9.54997 15.873 8.49997" stroke="#BEC46A" stroke-width="2" stroke-linecap="round" stroke-linejoin="round"/>
</svg>
