<svg width="168" height="166" viewBox="0 0 168 166" fill="none" xmlns="http://www.w3.org/2000/svg">
<g clip-path="url(#clip0_189_1973)">
<path d="M39.0376 0H0.5V38.3062H39.0376V0ZM32.8224 32.1294H6.71517V6.17837H32.8208V32.1294H32.8224Z" fill="white"/>
<path d="M27.3798 11.2441H11.4629V27.0636H27.3798V11.2441Z" fill="white"/>
<path d="M64.7276 0H51.8828V12.7703H64.7276V0Z" fill="white"/>
<path d="M13.3464 63.8469H0.5V76.6141V89.386H13.3464V76.6141V63.8469Z" fill="white"/>
<path d="M39.0362 63.8469H26.1914V76.6157H39.0362V63.8469Z" fill="white"/>
<path d="M26.1905 51.0781H13.3457V63.8469H26.1905V51.0781Z" fill="white"/>
<path d="M141.806 63.8469V51.0782H128.958H116.112V63.8469H128.958V76.614H141.806V89.386H128.958H116.112V76.614V63.8469H103.265V51.0782H116.112V38.3062V25.5375H103.265V12.7703H116.112V0H103.265H90.4206H77.5742V12.7703H90.4206V25.5375V38.3062H77.5742V51.0782H90.4206V63.8469V76.614H77.5742V89.386H90.4206V102.153V114.923H77.5742V127.692H90.4206V140.461V153.231H77.5742V166H90.4206H103.265H116.112V153.231H103.265V140.461H116.112V127.692V114.923H103.265V102.153H116.112H128.958V114.923H141.806V102.153H154.651V114.923H167.499V102.153V89.386H154.651V76.614H167.499V63.8469H154.651H141.806Z" fill="white"/>
<path d="M128.959 0V38.3062H167.498V0H128.959ZM161.281 32.1294H135.174V6.17837H161.281V32.1294Z" fill="white"/>
<path d="M155.839 11.2441H139.922V27.0636H155.839V11.2441Z" fill="white"/>
<path d="M0.5 166H39.0376V127.692H0.5V166ZM6.71517 133.871H32.8208V159.823H6.71517V133.871Z" fill="white"/>
<path d="M27.3798 138.936H11.4629V154.757H27.3798V138.936Z" fill="white"/>
<path d="M77.5745 127.692H64.7281V114.923H77.5745V102.153V89.3859H64.7281V76.614H77.5745V63.8468H64.7281V51.0781V38.3061H77.5745V25.5374V12.7703H64.7281V25.5374H51.8817V38.3061V51.0781H39.0369V63.8468H51.8817V76.614H39.0369V89.3859H51.8817V102.153H39.0369V89.3859H26.1905H13.3457V102.153H26.1905V114.923H39.0369H51.8817V127.692V140.461H64.7281V153.231H77.5745V140.461V127.692Z" fill="white"/>
<path d="M64.7276 153.231H51.8828V166H64.7276V153.231Z" fill="white"/>
<path d="M13.3464 102.153H0.5V114.923H13.3464V102.153Z" fill="white"/>
<path d="M128.959 166H167.498V127.692H128.959V166ZM135.174 133.871H161.281V159.823H135.174V133.871Z" fill="white"/>
<path d="M155.839 138.936H139.922V154.757H155.839V138.936Z" fill="white"/>
</g>
<defs>
<clipPath id="clip0_189_1973">
<rect width="167" height="166" fill="white" transform="translate(0.5)"/>
</clipPath>
</defs>
</svg>
